<svg height="512" viewBox="0 0 512 512" width="512" xmlns="http://www.w3.org/2000/svg" xmlns:xlink="http://www.w3.org/1999/xlink"><linearGradient id="New_Gradient_Swatch_2" gradientUnits="userSpaceOnUse" x1="387.358" x2="387.358" y1="72.728" y2="414.236"><stop offset="0" stop-color="#fc5c7d"/><stop offset=".129" stop-color="#f35e85"/><stop offset=".343" stop-color="#d9659b"/><stop offset=".616" stop-color="#b070bf"/><stop offset=".934" stop-color="#777ff0"/><stop offset="1" stop-color="#6a82fb"/></linearGradient><linearGradient id="New_Gradient_Swatch_2-2" x1="408.39" x2="408.39" xlink:href="#New_Gradient_Swatch_2" y1="72.728" y2="414.236"/><linearGradient id="New_Gradient_Swatch_2-3" x1="336" x2="336" xlink:href="#New_Gradient_Swatch_2" y1="72.728" y2="414.236"/><linearGradient id="New_Gradient_Swatch_2-4" x1="152" x2="152" xlink:href="#New_Gradient_Swatch_2" y1="72.728" y2="414.236"/><linearGradient id="New_Gradient_Swatch_2-5" x1="242.154" x2="242.154" xlink:href="#New_Gradient_Swatch_2" y1="72.728" y2="414.236"/><g id="GD001"><path d="m377.073 309.24 15.018 5.52c1.979-5.386 3.847-10.9 5.553-16.386l-15.28-4.748c-1.624 5.228-3.404 10.481-5.291 15.614z" fill="url(#New_Gradient_Swatch_2)"/><path d="m414.179 110.779-21.015 136.106c-1.612 10.445-3.758 20.918-6.375 31.128l15.5 3.974c2.747-10.714 5-21.7 6.69-32.661l21.014-136.1z" fill="url(#New_Gradient_Swatch_2-2)"/><path d="m328 424h16v16h-16z" fill="url(#New_Gradient_Swatch_2-3)"/><path d="m144 48h16v104h-16z" fill="url(#New_Gradient_Swatch_2-4)"/><path d="m368 392h-8v-24a8 8 0 0 0 -8-8h-8.68l3.261-21.122.262-.509a307.724 307.724 0 0 0 30.509-93.926l24.3-157.408a32 32 0 1 0 -63.252-9.766l-9.647 62.482a31.944 31.944 0 0 0 -42.561-6.326 31.962 31.962 0 0 0 -46.2-17.12v-68.305a32 32 0 0 0 -64 0v182.369c-13.706-11.993-34.484-30.176-44.663-39.089a29.552 29.552 0 0 0 -19.479-7.28h-.441a29.125 29.125 0 0 0 -24.223 45.3l42.161 63.145a8.012 8.012 0 0 0 1 1.215l30.187 30.187 6.022 36.153h-6.556a8 8 0 0 0 -8 8v24h-8a8 8 0 0 0 -8 8v96h16v-88h208v88h16v-96a8 8 0 0 0 -8-8zm-64-248a16.019 16.019 0 0 1 16 16v56a16 16 0 0 1 -32 0v-56a16.019 16.019 0 0 1 16-16zm-48-16a16.019 16.019 0 0 1 16 16v64a16 16 0 0 1 -32 0v-64a16.019 16.019 0 0 1 16-16zm-80.108 190.685a8.007 8.007 0 0 0 -2.235-4.342l-31.442-31.443-41.723-62.489a13.126 13.126 0 0 1 10.917-20.411h.441a13.379 13.379 0 0 1 8.947 3.317c15.948 13.965 57.935 50.7 57.935 50.7a8.033 8.033 0 0 0 2.117 1.333l19.234 8.243a52.6 52.6 0 0 1 31.917 48.407h16a68.585 68.585 0 0 0 -41.614-63.11l-14.386-6.165v-194.725a16 16 0 0 1 32 0v160a31.977 31.977 0 0 0 52.58 24.478 31.993 31.993 0 0 0 59.42-16.478v-18.3l18.217-117.99a16 16 0 0 1 31.626 4.884l-24.304 157.406a291.738 291.738 0 0 1 -28.926 89.052l-.855 1.664a7.981 7.981 0 0 0 -.791 2.436l-3.836 24.848h-144.353zm-7.892 57.315h176v16h-176z" fill="url(#New_Gradient_Swatch_2-5)"/></g></svg>